<svg  viewBox="0 0 430 105" fill="none" xmlns="http://www.w3.org/2000/svg">
<path d="M0.840683 15.12V0H23.1287V15.12H0.840683ZM0.840683 81.2V22.064H23.1287V81.2H0.840683Z" fill="#263238"/>
<path d="M80.3616 81.2L78.4576 72.8C74.1269 79.296 67.8549 82.544 59.6416 82.544C51.6522 82.544 45.4922 79.9307 41.1616 74.704C36.8309 69.4773 34.6656 61.7493 34.6656 51.52C34.6656 41.3653 36.8309 33.712 41.1616 28.56C45.4922 23.3333 51.6522 20.72 59.6416 20.72C66.4362 20.72 71.9616 22.9973 76.2176 27.552V0H98.5056V81.2H80.3616ZM66.5856 37.184C60.1642 37.184 56.9536 41.0293 56.9536 48.72V54.656C56.9536 62.272 60.1642 66.08 66.5856 66.08C69.8709 66.08 72.3349 64.9227 73.9776 62.608C75.6202 60.2933 76.4416 57.2693 76.4416 53.536V49.84C76.4416 46.1067 75.6202 43.0827 73.9776 40.768C72.3349 38.3787 69.8709 37.184 66.5856 37.184Z" fill="#263238"/>
<path d="M142.633 20.72C153.459 20.72 161.71 23.2587 167.385 28.336C173.134 33.4133 176.009 41.1787 176.009 51.632V55.44H131.657C131.657 59.696 132.59 62.9067 134.457 65.072C136.398 67.2373 139.422 68.32 143.529 68.32C147.262 68.32 149.987 67.536 151.705 65.968C153.497 64.4 154.393 62.3093 154.393 59.696H176.009C176.009 66.864 173.283 72.464 167.833 76.496C162.382 80.528 154.43 82.544 143.977 82.544C133.001 82.544 124.489 80.0053 118.441 74.928C112.393 69.776 109.369 62.0107 109.369 51.632C109.369 41.4773 112.318 33.7867 118.217 28.56C124.115 23.3333 132.254 20.72 142.633 20.72ZM143.529 34.944C136.51 34.944 132.59 38.2667 131.769 44.912H153.497C153.497 41.8507 152.601 39.424 150.809 37.632C149.091 35.84 146.665 34.944 143.529 34.944Z" fill="#263238"/>
<path d="M227.528 20.72C234.397 20.72 239.549 22.624 242.984 26.432C246.418 30.24 248.136 35.728 248.136 42.896V81.2H225.848V45.584C225.848 43.0453 225.176 41.0293 223.832 39.536C222.562 37.968 220.733 37.184 218.344 37.184C215.581 37.184 213.341 38.08 211.624 39.872C209.906 41.664 209.048 43.8667 209.048 46.48V81.2H186.76V22.064H205.016L206.472 31.024C208.786 27.888 211.81 25.3867 215.544 23.52C219.352 21.6533 223.346 20.72 227.528 20.72Z" fill="#263238"/>
<path d="M300.887 22.064V37.184H288.343V59.696C288.343 62.384 288.791 64.3627 289.687 65.632C290.583 66.8267 292.226 67.424 294.615 67.424H300.887V80.528C299.095 81.1253 296.78 81.6107 293.943 81.984C291.106 82.3573 288.642 82.544 286.551 82.544C279.98 82.544 274.903 81.3493 271.319 78.96C267.81 76.5707 266.055 72.5013 266.055 66.752V37.184H257.767V22.064H266.951L271.767 4.144H288.343V22.064H300.887Z" fill="#263238"/>
<path d="M347.181 20.608C348.898 20.608 350.429 20.832 351.773 21.28C353.117 21.6533 353.789 21.8773 353.789 21.952V40.656H346.621C341.991 40.656 338.631 41.8507 336.541 44.24C334.525 46.6293 333.517 50.176 333.517 54.88V81.2H311.229V22.064H329.485L330.941 31.024C332.285 27.5893 334.413 25.0133 337.325 23.296C340.237 21.504 343.522 20.608 347.181 20.608Z" fill="#263238"/>
<path d="M408.103 79.408C405.042 87.696 401.271 93.968 396.791 98.224C392.386 102.555 386.189 104.72 378.199 104.72C373.346 104.72 369.053 104.048 365.319 102.704V89.376H374.279C379.879 89.376 383.202 86.6507 384.247 81.2L360.727 22.064H384.695L396.007 61.376H396.791L407.207 22.064H429.159L408.103 79.408Z" fill="#263238"/>
</svg>
